<svg xmlns="http://www.w3.org/2000/svg" width="20" height="18" viewBox="0 0 20 18">
  <defs>
    <style>
      .cls-1 {
        fill: #ff2f2f;
        fill-rule: evenodd;
      }
    </style>
  </defs>
  <path id="hearth.svg" class="cls-1" d="M951.23,4856c-1.671,0-3.176,1.84-4.23,3-1.054-1.16-2.559-3-4.23-3a5.844,5.844,0,0,0-5.77,5.91,8.082,8.082,0,0,0,.416,2.53,9.456,9.456,0,0,0,.453,1.12C940.3,4870.68,947,4874,947,4874s6.7-3.32,9.131-8.44c0,0,.314-0.68.453-1.12a8.444,8.444,0,0,0,.416-2.53A5.844,5.844,0,0,0,951.23,4856Z" transform="translate(-937 -4856)"/>
</svg>
