<?xml version="1.0" encoding="utf-8"?>
<svg xmlns="http://www.w3.org/2000/svg"
	xmlns:xlink="http://www.w3.org/1999/xlink"
	width="138px" height="30px" viewBox="0 0 138 30">
<path fillRule="evenodd" d="M 137.54 8.24C 137.54 8.24 136.22 0.66 131.8-0 131.8-0 138-0 138-0 138-0 137.54 8.24 137.54 8.24ZM 122.15 27.46C 122.15 27.46 122.15-0 122.15-0 122.15-0 127.89-0 127.89-0 127.89-0 127.89 25.61 127.89 27.5 127.89 29.4 129.27 29.98 129.27 29.98 129.27 29.98 120.31 29.98 120.31 29.98 121.9 29.98 122.15 27.46 122.15 27.46ZM 112.27 8.24C 112.27 8.24 111.81-0 111.81-0 111.81-0 118.02-0 118.02-0 113.59 0.66 112.27 8.24 112.27 8.24ZM 93.9 27.5C 93.9 27.5 77.35 3.48 76.44 2.06 75.53 0.64 74.14-0 74.14-0 74.14-0 84.25-0 84.25-0 81.74-0 83.33 2.52 83.33 2.52 83.33 2.52 99.64 26.09 99.64 26.09 102.22 29.71 103.08 29.98 103.08 29.98 103.08 29.98 93.44 29.98 93.44 29.98 95.44 29.58 93.9 27.5 93.9 27.5ZM 94.58-0C 94.58-0 101.02-0 101.02-0 101.02-0 97.59 1.78 95.73 5.03 95.73 5.03 97.91 1.4 94.58-0ZM 63.11 23.11C 63.11 23.11 63.11 29.98 63.11 29.98 63.11 29.98 57.6 29.98 57.6 29.98 57.6 29.98 61.79 28.97 63.11 23.11ZM 63.11-0C 63.11-0 63.11 6.87 63.11 6.87 61.79 1.01 57.6-0 57.6-0 57.6-0 63.11-0 63.11-0ZM 57.59 18.3C 57.6 18.44 57.59 18.54 57.59 18.54 57.59 18.54 57.59 18.3 57.59 18.3ZM 52.45 14.89C 53.68 14.9 57.59 14.64 57.59 10.76 57.59 10.76 57.59 18.3 57.59 18.3 57.56 17.51 57.07 15.02 52.45 14.89ZM 52.45 14.89C 52.22 14.89 52.09 14.87 52.09 14.87 52.22 14.87 52.33 14.89 52.45 14.89ZM 49.79 3.2C 49.79 3.2 49.79 25.61 49.79 27.5 49.79 29.4 51.17 29.98 51.17 29.98 51.17 29.98 42.21 29.98 42.21 29.98 43.8 29.98 44.05 27.46 44.05 27.46 44.05 27.46 44.05 5.87 44.05 3.2 44.05 0.54 42.21-0 42.21-0 42.21-0 51.4-0 51.4-0 49.53-0 49.79 3.2 49.79 3.2ZM 30.51 4.91C 30.49 3.51 30.06 0.01 26.36 0.01 26.36 0.01 33.91 0.01 33.91 0.01 33.1 0.05 30.7 0.56 30.51 4.91ZM 30.5 5.49C 30.5 5.29 30.5 5.1 30.51 4.91 30.52 5.27 30.5 5.49 30.5 5.49ZM 34.17 0.01C 34.17 0.01 33.91 0.01 33.91 0.01 34.07-0 34.17 0.01 34.17 0.01ZM 30.27 30C 30.27 30 10.05 5.27 10.05 5.27 10.05 5.27 10.05 5.26 10.05 5.26 10.05 5.26 10.03 5.26 10.03 5.26 7.88 2.11 4.27 0.04 0.17 0 0.17 0 0.17-0 0.17-0 0.17-0 10.05-0 10.05-0 10.05-0 10.51-0 10.51-0 10.51-0 13.27-0 13.27-0 13.27-0 30.27 20.85 30.27 20.85 30.27 20.85 30.27 30 30.27 30ZM 9.81 25.06C 9.83 26.47 10.26 29.97 13.96 29.97 13.96 29.97 6.41 29.97 6.41 29.97 7.22 29.93 9.61 29.42 9.81 25.06ZM 9.82 24.49C 9.82 24.69 9.82 24.88 9.81 25.06 9.8 24.71 9.82 24.49 9.82 24.49ZM 6.15 29.97C 6.15 29.97 6.41 29.97 6.41 29.97 6.25 29.98 6.15 29.97 6.15 29.97ZM 81.03 23.57C 77.79 28.59 81.95 29.98 81.95 29.98 81.95 29.98 74.14 29.98 74.14 29.98 76.2 29.98 81.03 23.57 81.03 23.57Z" fill="rgb(209,35,37)"/></svg>